<svg width="89" height="106" viewBox="0 0 89 106" fill="none" xmlns="http://www.w3.org/2000/svg">
<g filter="url(#filter0_d_341_104)">
<path d="M8.37955 71.6622C11.3189 78.6589 15.8646 84.8652 21.6485 89.7785C27.4324 94.6918 34.2921 98.174 41.672 99.9433C49.052 101.713 56.7449 101.719 64.1279 99.9626C71.5109 98.206 78.3765 94.7355 84.1688 89.8322C73.9267 90.7904 63.6459 88.4559 54.8221 83.1683C45.9982 77.8807 39.0915 69.9157 35.1067 60.432C31.1219 50.9483 30.2667 40.4406 32.6657 30.4374C35.0646 20.4342 40.5925 11.4572 48.4453 4.8124C40.8891 5.51782 33.6051 7.99268 27.1832 12.0366C20.7613 16.0805 15.3819 21.5798 11.4805 28.0893C7.57908 34.5988 5.26536 41.9355 4.72663 49.5054C4.18791 57.0754 5.43932 64.6658 8.37955 71.6622Z" fill="#FCF2BF"/>
</g>
<defs>
<filter id="filter0_d_341_104" x="0.604675" y="0.812378" width="87.5641" height="104.463" filterUnits="userSpaceOnUse" color-interpolation-filters="sRGB">
<feFlood flood-opacity="0" result="BackgroundImageFix"/>
<feColorMatrix in="SourceAlpha" type="matrix" values="0 0 0 0 0 0 0 0 0 0 0 0 0 0 0 0 0 0 127 0" result="hardAlpha"/>
<feOffset/>
<feGaussianBlur stdDeviation="2"/>
<feComposite in2="hardAlpha" operator="out"/>
<feColorMatrix type="matrix" values="0 0 0 0 0.988235 0 0 0 0 0.94902 0 0 0 0 0.74902 0 0 0 1 0"/>
<feBlend mode="normal" in2="BackgroundImageFix" result="effect1_dropShadow_341_104"/>
<feBlend mode="normal" in="SourceGraphic" in2="effect1_dropShadow_341_104" result="shape"/>
</filter>
</defs>
</svg>
