<svg width="498" height="648" viewBox="0 0 498 648" fill="none" xmlns="http://www.w3.org/2000/svg">
<path d="M110.36 0.131864C110.078 0.414711 110.194 4.13186 110.361 6.13186L114.361 4.63186C114.361 4.13186 111.36 -0.868164 110.36 0.131864Z" fill="#6B6B6B"/>
<path d="M126.86 2.63184C125.26 2.23184 121.694 3.96517 120.36 4.63184L124.86 9.13186C126.194 7.13185 128.46 3.03184 126.86 2.63184Z" fill="#6B6B6B"/>
<path d="M115.861 3.63184C107.061 3.63184 106.194 12.9652 106.861 17.6318C109.527 18.1318 115.86 19.4318 119.86 20.6318C123.86 21.8318 125.194 16.7985 125.36 14.1318C125.86 10.6318 124.661 3.63184 115.861 3.63184Z" fill="#6B6B6B"/>
<path d="M96.8605 55.6318C88.0605 43.2318 100.86 24.1318 107.86 16.6318H115.36L120.86 20.6318C119.86 24.7985 117.66 35.5318 120.86 43.1318C124.06 50.7318 122.194 54.6318 120.86 55.6318C116.527 60.7985 105.66 68.0318 96.8605 55.6318Z" fill="#6B6B6B"/>
<path d="M100.36 18.6321C93.9602 25.4321 94.3602 35.1321 95.3602 39.1321L94.8602 43.1321C88.3602 38.6321 91.2677 24.2643 94.8605 19.1318C101.861 9.13163 108.36 10.1321 100.36 18.6321Z" fill="#6B6B6B"/>
<path d="M61 71H447L495 123H4L61 71Z" fill="#394B56"/>
<rect x="61" y="53" width="386" height="9" fill="#455A66"/>
<rect x="61" y="62" width="386" height="9" fill="#34444F"/>
<rect y="123" width="498" height="16" fill="#4B585D"/>
<rect x="26" y="139" width="454" height="206" fill="#7E5048"/>
<rect x="26" y="365" width="454" height="231" fill="#7E5048"/>
<rect x="175" y="388" width="78" height="189" fill="#1E4531"/>
<rect x="253" y="388" width="78" height="189" fill="#1E4531"/>
<rect x="260.5" y="395.5" width="63" height="174" stroke="white"/>
<rect x="182.5" y="395.5" width="63" height="174" stroke="white"/>
<rect x="26" y="345" width="454" height="20" fill="#39221A"/>
<rect x="175" y="577" width="156" height="14" fill="#322D2B"/>
<line x1="292.5" y1="395" x2="292.5" y2="570" stroke="white"/>
<line x1="308.5" y1="395" x2="308.5" y2="570" stroke="white"/>
<line x1="276.5" y1="395" x2="276.5" y2="570" stroke="white"/>
<line x1="214.5" y1="395" x2="214.5" y2="570" stroke="white"/>
<line x1="230.5" y1="395" x2="230.5" y2="570" stroke="white"/>
<line x1="198.5" y1="395" x2="198.5" y2="570" stroke="white"/>
<line x1="214.354" y1="464.354" x2="205.354" y2="473.354" stroke="#2C2F26"/>
<line y1="-0.5" x2="12.7279" y2="-0.5" transform="matrix(0.707107 0.707107 0.707107 -0.707107 214 464)" stroke="#2C2F26"/>
<rect x="200" y="473" width="28" height="21" fill="#2C2F26"/>
<rect x="202" y="475" width="24" height="17" fill="#999D7E"/>
<path d="M207.755 485.59C207.046 485.525 206.694 484.975 206.694 483.949C206.765 482.854 207.122 482.309 207.755 482.309C208.071 482.309 208.329 482.461 208.522 482.76C208.716 483.064 208.815 483.457 208.815 483.949C208.774 485.045 208.417 485.59 207.755 485.59ZM207.755 486.352C208.265 486.352 208.733 486.158 209.161 485.771C209.589 485.385 209.8 484.781 209.8 483.949C209.8 483.252 209.606 482.678 209.22 482.227C208.839 481.775 208.347 481.547 207.755 481.547C207.163 481.547 206.671 481.775 206.29 482.227C205.903 482.678 205.71 483.252 205.71 483.949C205.71 484.781 205.921 485.385 206.349 485.771C206.776 486.158 207.245 486.352 207.755 486.352ZM211.464 483.621V482.625H211.856C212.079 482.625 212.237 482.654 212.331 482.713C212.425 482.771 212.478 482.836 212.495 482.918C212.513 482.994 212.524 483.07 212.524 483.129C212.524 483.439 212.302 483.604 211.856 483.615C211.769 483.621 211.634 483.621 211.464 483.621ZM211.464 486.316V484.605C212.829 484.605 213.509 484.113 213.509 483.129C213.427 482.139 212.876 481.641 211.856 481.641H210.386V486.316H211.464ZM216.878 486.357L216.884 485.42H215.097V484.471H216.731V483.533H215.097V482.672H216.813V481.734H214.019V486.357H216.878ZM221.296 486.316V481.641H220.218V484.523L218.577 481.641H217.499V486.316H218.577V483.475L220.206 486.316H221.296Z" fill="#2C2F26"/>
<path d="M223.578 359.602C223.988 359.328 224.184 358.293 224.184 356.496C224.164 354.191 224.125 352.922 224.086 352.707C224.789 353.527 226.117 355.715 228.09 359.289C228.09 359.445 228.129 359.523 228.188 359.523C228.402 359.523 228.52 358.176 228.52 355.5L228.559 353.977C228.559 352.082 228.48 351.125 228.324 351.105C228.246 351.105 228.168 351.125 228.109 351.184C227.973 351.301 227.895 351.945 227.895 353.098L227.934 355.461L227.895 357.668C227.562 357.023 227.211 356.398 226.801 355.812C226.625 355.559 226.449 355.324 226.312 355.09C225.141 353.195 224.34 352.043 223.93 351.594C223.832 351.301 223.578 351.066 223.168 350.91C223.07 350.91 223.012 350.949 223.012 351.027C223.012 351.223 223.07 351.379 223.168 351.477C223.402 351.73 223.52 352.258 223.52 353.098C223.559 353.938 223.578 354.758 223.578 355.598C223.559 356.906 223.52 358.234 223.461 359.543C223.461 359.582 223.48 359.602 223.539 359.602H223.578ZM240.355 359.582C240.433 359.582 240.472 359.562 240.472 359.504L240.491 359.074C240.491 358.352 240.198 357.258 239.613 355.832L239.105 354.484C238.773 353.527 238.382 352.59 237.933 351.711L237.952 351.477C237.952 351.105 237.777 350.832 237.445 350.617L237.347 350.598C237.23 350.598 237.171 350.656 237.171 350.793C237.23 351.086 237.269 351.359 237.269 351.633C237.269 352.375 236.976 353.41 236.409 354.758L236.116 355.441C235.609 356.789 234.984 358.059 234.241 359.289C234.241 359.309 234.261 359.328 234.3 359.328C235.101 358.82 235.706 358.039 236.116 357.004C237.698 356.828 238.714 356.613 239.163 356.379C239.573 357.414 239.945 358.469 240.316 359.543C240.316 359.562 240.335 359.582 240.355 359.582ZM236.351 356.398L236.898 354.953C237.23 354.172 237.503 353.371 237.718 352.551L238.988 355.949C238.753 355.988 238.46 356.047 238.109 356.145C237.874 356.203 237.523 356.262 237.054 356.301L236.351 356.398ZM246.838 359.602C247.248 359.348 247.444 358.176 247.444 356.086C247.444 355.012 247.424 354.074 247.385 353.273C247.639 353.84 248.205 354.973 249.045 356.711C249.358 357.336 249.67 357.961 249.963 358.605C249.983 358.664 250.061 358.684 250.159 358.684C250.432 358.684 251.116 357.434 252.209 354.914C252.522 354.211 252.815 353.508 253.108 352.785L253.147 355.461C253.147 355.793 253.147 356.105 253.127 356.398C253.108 356.711 253.088 357.023 253.088 357.316C253.088 358.039 253.166 358.742 253.323 359.445C253.342 359.504 253.362 359.523 253.401 359.523C253.616 359.523 253.713 358.547 253.713 356.613L253.752 353.977C253.752 352.082 253.674 351.125 253.538 351.105C253.44 351.105 253.362 351.125 253.303 351.184C253.225 351.242 253.186 351.32 253.186 351.379C253.127 351.926 252.815 352.707 252.209 353.723C251.877 354.328 251.565 354.992 251.272 355.715C250.979 356.438 250.647 357.141 250.276 357.805C249.553 356.32 248.772 354.777 247.971 353.195C247.424 351.848 246.916 351.086 246.448 350.91C246.33 350.91 246.272 350.969 246.272 351.066C246.291 351.242 246.35 351.379 246.448 351.477C246.604 351.652 246.702 351.848 246.741 352.102C246.799 352.707 246.838 353.879 246.838 355.598C246.838 356.418 246.799 357.727 246.721 359.523C246.721 359.562 246.741 359.582 246.76 359.602H246.838ZM260.705 359.582C260.92 359.426 261.076 359.094 261.134 358.605C261.271 357.844 261.33 357.18 261.33 356.613C261.33 355.109 261.31 353.762 261.252 352.57C261.232 352.512 261.232 352.453 261.232 352.395C261.232 351.984 261.193 351.613 261.095 351.281C260.998 350.949 260.724 350.695 260.314 350.539C260.197 350.539 260.138 350.598 260.138 350.695C260.177 350.891 260.255 351.066 260.392 351.223C260.509 351.379 260.588 351.594 260.607 351.867C260.666 352.707 260.705 353.879 260.705 355.383C260.705 356.77 260.666 358.137 260.588 359.523C260.588 359.562 260.607 359.582 260.666 359.582H260.705ZM270.118 359.582C270.352 359.543 270.489 358.723 270.528 357.141C270.548 356.203 270.606 355.656 270.684 355.52C270.938 355.07 271.192 354.641 271.485 354.23C272.364 352.98 272.794 352.082 272.794 351.555C272.794 351.301 272.716 351.086 272.559 350.871C272.54 350.832 272.501 350.812 272.481 350.812C272.423 350.812 272.364 350.832 272.325 350.891C272.286 350.949 272.266 351.008 272.266 351.047C272.091 352.199 271.641 353.215 270.919 354.133C270.723 354.406 270.548 354.699 270.372 354.992L268.927 352.629C268.458 351.789 267.97 351.359 267.481 351.359C267.266 351.359 267.149 351.438 267.149 351.574C267.149 351.711 267.286 351.848 267.559 352.004C267.813 352.18 268.184 352.668 268.653 353.43C269.102 354.191 269.571 354.953 270.02 355.695C269.962 355.988 269.923 356.574 269.923 357.434C269.903 357.688 269.884 357.922 269.884 358.176C269.884 359.074 269.962 359.543 270.118 359.582ZM282.793 359.582C282.871 359.582 282.91 359.562 282.91 359.504L282.93 359.074C282.93 358.352 282.637 357.258 282.051 355.832L281.543 354.484C281.211 353.527 280.82 352.59 280.371 351.711L280.391 351.477C280.391 351.105 280.215 350.832 279.883 350.617L279.785 350.598C279.668 350.598 279.609 350.656 279.609 350.793C279.668 351.086 279.707 351.359 279.707 351.633C279.707 352.375 279.414 353.41 278.848 354.758L278.555 355.441C278.047 356.789 277.422 358.059 276.68 359.289C276.68 359.309 276.699 359.328 276.738 359.328C277.539 358.82 278.145 358.039 278.555 357.004C280.137 356.828 281.152 356.613 281.602 356.379C282.012 357.414 282.383 358.469 282.754 359.543C282.754 359.562 282.773 359.582 282.793 359.582ZM278.789 356.398L279.336 354.953C279.668 354.172 279.941 353.371 280.156 352.551L281.426 355.949C281.191 355.988 280.898 356.047 280.547 356.145C280.312 356.203 279.961 356.262 279.492 356.301L278.789 356.398Z" fill="#7F6055"/>
<path d="M223.578 359.602V359.902H223.669L223.745 359.851L223.578 359.602ZM224.184 356.496H224.484L224.484 356.494L224.184 356.496ZM224.086 352.707L224.314 352.512L223.593 351.67L223.791 352.761L224.086 352.707ZM228.09 359.289H228.39V359.212L228.352 359.144L228.09 359.289ZM228.52 355.5L228.22 355.492V355.5H228.52ZM228.559 353.977L228.859 353.984V353.977H228.559ZM228.324 351.105L228.361 350.808L228.343 350.805H228.324V351.105ZM228.109 351.184L228.305 351.411L228.313 351.404L228.322 351.396L228.109 351.184ZM227.895 353.098H227.594L227.595 353.103L227.895 353.098ZM227.934 355.461L228.234 355.466L228.234 355.456L227.934 355.461ZM227.895 357.668L227.628 357.805L228.194 357.673L227.895 357.668ZM226.801 355.812L226.554 355.983L226.555 355.985L226.801 355.812ZM226.312 355.09L226.572 354.939L226.568 354.932L226.312 355.09ZM223.93 351.594L223.645 351.689L223.665 351.749L223.708 351.796L223.93 351.594ZM223.168 350.91L223.275 350.63L223.223 350.61H223.168V350.91ZM223.168 351.477L223.389 351.273L223.38 351.264L223.168 351.477ZM223.52 353.098H223.219L223.22 353.112L223.52 353.098ZM223.578 355.598L223.878 355.602V355.598H223.578ZM223.461 359.543L223.161 359.53V359.543H223.461ZM223.745 359.851C223.91 359.741 224.029 359.572 224.118 359.38C224.208 359.187 224.276 358.95 224.329 358.677C224.435 358.132 224.484 357.402 224.484 356.496H223.884C223.884 357.387 223.835 358.073 223.74 358.563C223.693 358.808 223.636 358.994 223.574 359.127C223.511 359.263 223.452 359.325 223.412 359.352L223.745 359.851ZM224.484 356.494C224.474 355.34 224.459 354.445 224.442 353.81C224.433 353.492 224.424 353.239 224.415 353.05C224.405 352.87 224.395 352.73 224.381 352.653L223.791 352.761C223.796 352.792 223.806 352.891 223.815 353.081C223.825 353.263 223.834 353.511 223.842 353.826C223.859 354.456 223.874 355.347 223.884 356.499L224.484 356.494ZM223.858 352.902C224.537 353.694 225.849 355.85 227.827 359.434L228.352 359.144C226.385 355.579 225.041 353.361 224.314 352.512L223.858 352.902ZM227.79 359.289C227.79 359.385 227.801 359.491 227.842 359.585C227.884 359.682 227.992 359.823 228.188 359.823V359.223C228.245 359.223 228.298 359.245 228.338 359.277C228.373 359.306 228.387 359.335 228.392 359.345C228.398 359.36 228.39 359.349 228.39 359.289H227.79ZM228.188 359.823C228.388 359.823 228.49 359.668 228.525 359.608C228.569 359.53 228.599 359.436 228.621 359.342C228.668 359.151 228.705 358.88 228.733 358.54C228.79 357.856 228.82 356.84 228.82 355.5H228.22C228.22 356.836 228.19 357.831 228.135 358.49C228.107 358.822 228.074 359.055 228.039 359.2C228.03 359.235 228.022 359.262 228.015 359.282C228.011 359.292 228.008 359.299 228.006 359.305C228.005 359.307 228.004 359.309 228.003 359.311C228.003 359.311 228.003 359.312 228.003 359.312C228.002 359.313 228.002 359.313 228.002 359.313C228.002 359.313 228.002 359.313 228.003 359.312C228.003 359.312 228.003 359.311 228.004 359.311C228.005 359.309 228.006 359.307 228.009 359.304C228.013 359.298 228.021 359.288 228.035 359.277C228.063 359.253 228.116 359.223 228.188 359.223V359.823ZM228.819 355.508L228.858 353.984L228.259 353.969L228.22 355.492L228.819 355.508ZM228.859 353.977C228.859 353.027 228.839 352.305 228.799 351.813C228.779 351.57 228.753 351.371 228.718 351.226C228.702 351.155 228.678 351.08 228.643 351.015C228.617 350.965 228.534 350.829 228.361 350.808L228.287 351.403C228.219 351.395 228.172 351.362 228.148 351.339C228.125 351.318 228.116 351.3 228.115 351.299C228.114 351.297 228.123 351.314 228.135 351.366C228.159 351.465 228.182 351.627 228.201 351.862C228.239 352.328 228.259 353.031 228.259 353.977H228.859ZM228.324 350.805C228.2 350.805 228.032 350.837 227.897 350.971L228.322 351.396C228.318 351.399 228.315 351.402 228.311 351.404C228.308 351.406 228.305 351.407 228.304 351.407C228.304 351.407 228.309 351.405 228.324 351.405V350.805ZM227.914 350.956C227.806 351.049 227.757 351.191 227.729 351.289C227.697 351.406 227.672 351.551 227.653 351.718C227.614 352.055 227.595 352.517 227.595 353.098H228.195C228.195 352.526 228.214 352.09 228.249 351.787C228.266 351.634 228.287 351.524 228.307 351.451C228.333 351.36 228.344 351.377 228.305 351.411L227.914 350.956ZM227.595 353.103L227.634 355.466L228.234 355.456L228.194 353.093L227.595 353.103ZM227.634 355.456L227.595 357.663L228.194 357.673L228.234 355.466L227.634 355.456ZM228.161 357.531C227.826 356.88 227.468 356.242 227.047 355.64L226.555 355.985C226.954 356.555 227.299 357.167 227.628 357.805L228.161 357.531ZM227.047 355.642C226.862 355.374 226.701 355.16 226.572 354.939L226.053 355.241C226.198 355.489 226.388 355.743 226.554 355.983L227.047 355.642ZM226.568 354.932C225.398 353.041 224.583 351.865 224.151 351.391L223.708 351.796C224.096 352.221 224.883 353.349 226.057 355.248L226.568 354.932ZM224.214 351.499C224.079 351.093 223.737 350.806 223.275 350.63L223.061 351.191C223.419 351.327 223.585 351.509 223.645 351.689L224.214 351.499ZM223.168 350.61C223.086 350.61 222.975 350.625 222.877 350.697C222.764 350.779 222.712 350.903 222.712 351.027H223.312C223.312 351.046 223.308 351.074 223.293 351.106C223.277 351.138 223.254 351.164 223.23 351.182C223.185 351.214 223.152 351.21 223.168 351.21V350.61ZM222.712 351.027C222.712 351.278 222.787 351.52 222.956 351.689L223.38 351.264C223.354 351.238 223.312 351.167 223.312 351.027H222.712ZM222.948 351.68C223.014 351.752 223.085 351.888 223.139 352.131C223.191 352.371 223.22 352.689 223.22 353.098H223.82C223.82 352.666 223.79 352.301 223.725 352.003C223.661 351.709 223.557 351.455 223.388 351.273L222.948 351.68ZM223.22 353.112C223.259 353.947 223.278 354.763 223.278 355.598H223.878C223.878 354.753 223.858 353.928 223.819 353.084L223.22 353.112ZM223.278 355.593C223.259 356.899 223.22 358.224 223.161 359.53L223.761 359.556C223.819 358.245 223.859 356.914 223.878 355.602L223.278 355.593ZM223.161 359.543C223.161 359.61 223.179 359.732 223.291 359.821C223.384 359.896 223.49 359.902 223.539 359.902V359.302C223.54 359.302 223.553 359.301 223.573 359.306C223.594 359.311 223.629 359.324 223.665 359.353C223.752 359.422 223.761 359.515 223.761 359.543H223.161ZM223.539 359.902H223.578V359.302H223.539V359.902ZM240.472 359.504L240.172 359.49V359.504H240.472ZM240.491 359.074L240.791 359.088V359.074H240.491ZM239.613 355.832L239.332 355.938L239.335 355.946L239.613 355.832ZM239.105 354.484L238.821 354.583L238.824 354.59L239.105 354.484ZM237.933 351.711L237.634 351.686L237.627 351.771L237.666 351.847L237.933 351.711ZM237.952 351.477L238.251 351.501L238.252 351.489V351.477H237.952ZM237.445 350.617L237.608 350.365L237.559 350.334L237.503 350.323L237.445 350.617ZM237.347 350.598L237.406 350.303L237.377 350.298H237.347V350.598ZM237.171 350.793H236.871V350.823L236.877 350.852L237.171 350.793ZM236.409 354.758L236.685 354.876L236.686 354.874L236.409 354.758ZM236.116 355.441L235.84 355.323L235.836 355.336L236.116 355.441ZM234.241 359.289L233.985 359.134L233.941 359.206V359.289H234.241ZM234.3 359.328V359.628H234.387L234.461 359.581L234.3 359.328ZM236.116 357.004L236.083 356.706L235.904 356.726L235.838 356.893L236.116 357.004ZM239.163 356.379L239.442 356.268L239.32 355.959L239.025 356.113L239.163 356.379ZM240.316 359.543H240.616V359.493L240.599 359.445L240.316 359.543ZM236.351 356.398L236.07 356.292L235.891 356.765L236.392 356.696L236.351 356.398ZM236.898 354.953L236.621 354.836L236.617 354.847L236.898 354.953ZM237.718 352.551L237.999 352.446L237.668 351.559L237.428 352.475L237.718 352.551ZM238.988 355.949L239.037 356.245L239.396 356.185L239.269 355.844L238.988 355.949ZM238.109 356.145L238.181 356.436L238.189 356.434L238.109 356.145ZM237.054 356.301L237.029 356.002L237.021 356.003L237.013 356.004L237.054 356.301ZM240.355 359.882C240.405 359.882 240.507 359.879 240.602 359.819C240.729 359.74 240.772 359.61 240.772 359.504H240.172C240.172 359.486 240.175 359.451 240.195 359.41C240.216 359.366 240.249 359.332 240.284 359.311C240.315 359.291 240.341 359.285 240.351 359.283C240.36 359.281 240.363 359.282 240.355 359.282V359.882ZM240.772 359.518L240.791 359.088L240.192 359.061L240.172 359.49L240.772 359.518ZM240.791 359.074C240.791 358.289 240.478 357.149 239.89 355.718L239.335 355.946C239.919 357.366 240.191 358.414 240.191 359.074H240.791ZM239.893 355.726L239.385 354.379L238.824 354.59L239.332 355.938L239.893 355.726ZM239.388 354.386C239.052 353.418 238.656 352.467 238.2 351.574L237.666 351.847C238.108 352.712 238.493 353.637 238.821 354.583L239.388 354.386ZM238.232 351.736L238.251 351.501L237.653 351.452L237.634 351.686L238.232 351.736ZM238.252 351.477C238.252 350.984 238.007 350.624 237.608 350.365L237.282 350.869C237.546 351.04 237.652 351.227 237.652 351.477H238.252ZM237.503 350.323L237.406 350.303L237.288 350.892L237.386 350.911L237.503 350.323ZM237.347 350.298C237.242 350.298 237.102 350.324 236.995 350.441C236.892 350.552 236.871 350.689 236.871 350.793H237.471C237.471 350.76 237.479 350.8 237.435 350.848C237.387 350.9 237.335 350.898 237.347 350.898V350.298ZM236.877 350.852C236.934 351.136 236.969 351.387 236.969 351.633H237.569C237.569 351.331 237.526 351.036 237.465 350.734L236.877 350.852ZM236.969 351.633C236.969 352.311 236.697 353.299 236.133 354.642L236.686 354.874C237.255 353.521 237.569 352.439 237.569 351.633H236.969ZM236.134 354.64L235.841 355.323L236.392 355.56L236.685 354.876L236.134 354.64ZM235.836 355.336C235.335 356.665 234.718 357.918 233.985 359.134L234.498 359.444C235.249 358.199 235.882 356.913 236.397 355.547L235.836 355.336ZM233.941 359.289C233.941 359.549 234.181 359.628 234.3 359.628V359.028C234.328 359.028 234.382 359.035 234.436 359.076C234.492 359.118 234.541 359.193 234.541 359.289H233.941ZM234.461 359.581C235.325 359.033 235.967 358.197 236.395 357.114L235.838 356.893C235.446 357.882 234.877 358.607 234.139 359.075L234.461 359.581ZM236.15 357.302C236.946 357.214 237.605 357.115 238.125 357.007C238.639 356.901 239.039 356.782 239.302 356.645L239.025 356.113C238.838 356.21 238.506 356.316 238.004 356.42C237.508 356.522 236.869 356.618 236.083 356.706L236.15 357.302ZM238.884 356.489C239.292 357.518 239.661 358.567 240.032 359.641L240.599 359.445C240.228 358.37 239.855 357.31 239.442 356.268L238.884 356.489ZM240.016 359.543C240.016 359.65 240.066 359.733 240.116 359.782C240.165 359.831 240.247 359.882 240.355 359.882V359.282C240.442 359.282 240.505 359.323 240.54 359.358C240.575 359.392 240.616 359.455 240.616 359.543H240.016ZM236.631 356.505L237.178 355.059L236.617 354.847L236.07 356.292L236.631 356.505ZM237.174 355.07C237.511 354.276 237.79 353.461 238.008 352.627L237.428 352.475C237.217 353.281 236.948 354.068 236.622 354.836L237.174 355.07ZM237.437 352.656L238.706 356.054L239.269 355.844L237.999 352.446L237.437 352.656ZM238.938 355.653C238.695 355.694 238.392 355.755 238.028 355.855L238.189 356.434C238.529 356.339 238.811 356.283 239.037 356.245L238.938 355.653ZM238.036 355.853C237.822 355.907 237.487 355.964 237.029 356.002L237.079 356.6C237.558 356.56 237.927 356.499 238.181 356.436L238.036 355.853ZM237.013 356.004L236.31 356.101L236.392 356.696L237.095 356.598L237.013 356.004ZM246.838 359.602V359.902H246.924L246.996 359.857L246.838 359.602ZM247.385 353.273L247.659 353.151L247.086 353.288L247.385 353.273ZM249.045 356.711L248.775 356.841L248.777 356.845L249.045 356.711ZM249.963 358.605L250.248 358.511L250.243 358.496L250.236 358.481L249.963 358.605ZM252.209 354.914L251.935 354.792L251.934 354.795L252.209 354.914ZM253.108 352.785L253.408 352.781L252.83 352.672L253.108 352.785ZM253.147 355.461H253.447L253.447 355.457L253.147 355.461ZM253.127 356.398L252.828 356.378L252.828 356.38L253.127 356.398ZM253.323 359.445L253.03 359.51L253.033 359.525L253.038 359.54L253.323 359.445ZM253.713 356.613L253.413 356.609V356.613H253.713ZM253.752 353.977L254.052 353.981V353.977H253.752ZM253.538 351.105L253.58 350.808L253.559 350.805H253.538V351.105ZM253.303 351.184L253.483 351.424L253.5 351.411L253.515 351.396L253.303 351.184ZM253.186 351.379L253.484 351.411L253.486 351.395V351.379H253.186ZM252.209 353.723L251.952 353.569L251.946 353.578L252.209 353.723ZM250.276 357.805L250.006 357.936L250.257 358.452L250.538 357.951L250.276 357.805ZM247.971 353.195L247.693 353.308L247.698 353.32L247.703 353.331L247.971 353.195ZM246.448 350.91L246.553 350.629L246.502 350.61H246.448V350.91ZM246.272 351.066H245.972V351.083L245.974 351.1L246.272 351.066ZM246.448 351.477L246.672 351.277L246.666 351.271L246.66 351.264L246.448 351.477ZM246.741 352.102L247.039 352.073L247.038 352.064L247.037 352.056L246.741 352.102ZM246.721 359.523L246.421 359.51V359.523H246.721ZM246.76 359.602L246.548 359.814L246.636 359.902H246.76V359.602ZM246.996 359.857C247.175 359.746 247.295 359.56 247.382 359.357C247.471 359.149 247.538 358.888 247.591 358.583C247.695 357.972 247.744 357.137 247.744 356.086H247.144C247.144 357.125 247.095 357.921 246.999 358.482C246.951 358.763 246.893 358.973 246.83 359.121C246.765 359.275 246.707 359.33 246.68 359.346L246.996 359.857ZM247.744 356.086C247.744 355.008 247.724 354.066 247.685 353.259L247.086 353.288C247.124 354.083 247.144 355.015 247.144 356.086H247.744ZM247.111 353.396C247.368 353.968 247.939 355.111 248.775 356.841L249.315 356.58C248.472 354.835 247.911 353.712 247.659 353.151L247.111 353.396ZM248.777 356.845C249.09 357.471 249.4 358.091 249.69 358.73L250.236 358.481C249.941 357.831 249.626 357.201 249.314 356.577L248.777 356.845ZM249.679 358.7C249.728 358.848 249.846 358.919 249.931 358.949C250.012 358.978 250.095 358.984 250.159 358.984V358.384C250.124 358.384 250.12 358.379 250.133 358.384C250.141 358.387 250.161 358.395 250.185 358.416C250.211 358.438 250.234 358.47 250.248 358.511L249.679 358.7ZM250.159 358.984C250.3 358.984 250.409 358.908 250.472 358.856C250.544 358.796 250.613 358.718 250.679 358.631C250.813 358.456 250.966 358.205 251.14 357.887C251.488 357.248 251.937 356.296 252.485 355.034L251.934 354.795C251.388 356.052 250.948 356.985 250.613 357.6C250.445 357.909 250.308 358.128 250.202 358.267C250.149 358.337 250.111 358.376 250.088 358.394C250.058 358.42 250.086 358.384 250.159 358.384V358.984ZM252.484 355.036C252.798 354.329 253.092 353.622 253.386 352.898L252.83 352.672C252.537 353.393 252.246 354.093 251.935 354.792L252.484 355.036ZM252.808 352.79L252.847 355.465L253.447 355.457L253.408 352.781L252.808 352.79ZM252.847 355.461C252.847 355.795 252.847 356.097 252.828 356.378L253.427 356.418C253.447 356.114 253.447 355.791 253.447 355.461H252.847ZM252.828 356.38C252.809 356.69 252.788 357.012 252.788 357.316H253.388C253.388 357.035 253.407 356.732 253.427 356.417L252.828 356.38ZM252.788 357.316C252.788 358.061 252.869 358.786 253.03 359.51L253.616 359.38C253.464 358.698 253.388 358.017 253.388 357.316H252.788ZM253.038 359.54C253.051 359.578 253.078 359.654 253.142 359.718C253.224 359.801 253.323 359.823 253.401 359.823V359.223C253.415 359.223 253.443 359.225 253.476 359.237C253.512 359.25 253.543 359.27 253.567 359.294C253.606 359.334 253.614 359.371 253.607 359.35L253.038 359.54ZM253.401 359.823C253.557 359.823 253.66 359.731 253.714 359.66C253.768 359.59 253.802 359.507 253.826 359.433C253.875 359.281 253.91 359.073 253.936 358.825C253.989 358.323 254.013 357.582 254.013 356.613H253.413C253.413 357.578 253.389 358.293 253.339 358.762C253.314 359 253.284 359.157 253.255 359.248C253.239 359.296 253.231 359.305 253.237 359.296C253.245 359.286 253.299 359.223 253.401 359.223V359.823ZM254.013 356.618L254.052 353.981L253.452 353.972L253.413 356.609L254.013 356.618ZM254.052 353.977C254.052 353.027 254.033 352.305 253.995 351.815C253.977 351.572 253.953 351.375 253.922 351.232C253.907 351.163 253.887 351.09 253.856 351.027C253.841 350.996 253.818 350.953 253.78 350.914C253.742 350.874 253.676 350.822 253.58 350.808L253.495 351.402C253.416 351.391 253.366 351.349 253.344 351.326C253.333 351.314 253.326 351.304 253.322 351.298C253.318 351.292 253.316 351.287 253.315 351.286C253.315 351.285 253.317 351.29 253.321 351.303C253.325 351.317 253.33 351.335 253.336 351.36C253.358 351.461 253.379 351.625 253.397 351.861C253.433 352.328 253.452 353.032 253.452 353.977H254.052ZM253.538 350.805C253.403 350.805 253.23 350.832 253.091 350.971L253.515 351.396C253.512 351.399 253.508 351.402 253.503 351.405C253.499 351.408 253.495 351.409 253.495 351.409C253.495 351.409 253.498 351.408 253.505 351.407C253.512 351.406 253.523 351.405 253.538 351.405V350.805ZM253.123 350.944C252.99 351.043 252.886 351.202 252.886 351.379H253.486C253.486 351.397 253.483 351.41 253.481 351.417C253.479 351.425 253.476 351.429 253.476 351.43C253.474 351.433 253.476 351.429 253.483 351.424L253.123 350.944ZM252.888 351.347C252.836 351.827 252.552 352.562 251.952 353.569L252.467 353.876C253.078 352.852 253.418 352.024 253.484 351.411L252.888 351.347ZM251.946 353.578C251.608 354.195 251.291 354.87 250.994 355.602L251.55 355.828C251.839 355.114 252.147 354.461 252.472 353.867L251.946 353.578ZM250.994 355.602C250.705 356.315 250.378 357.006 250.014 357.658L250.538 357.951C250.915 357.275 251.253 356.56 251.55 355.828L250.994 355.602ZM250.546 357.673C249.822 356.187 249.039 354.641 248.239 353.06L247.703 353.331C248.504 354.913 249.285 356.454 250.006 357.936L250.546 357.673ZM248.249 353.083C247.972 352.399 247.699 351.851 247.43 351.447C247.166 351.051 246.878 350.751 246.553 350.629L246.342 351.191C246.486 351.245 246.686 351.413 246.93 351.78C247.169 352.137 247.423 352.643 247.693 353.308L248.249 353.083ZM246.448 350.61C246.343 350.61 246.216 350.636 246.113 350.731C246.007 350.828 245.972 350.957 245.972 351.066H246.572C246.572 351.078 246.567 351.129 246.519 351.173C246.475 351.213 246.436 351.21 246.448 351.21V350.61ZM245.974 351.1C245.999 351.324 246.078 351.531 246.236 351.689L246.66 351.264C246.622 351.227 246.584 351.161 246.57 351.033L245.974 351.1ZM246.223 351.676C246.343 351.81 246.414 351.952 246.444 352.147L247.037 352.056C246.989 351.743 246.865 351.495 246.672 351.277L246.223 351.676ZM246.442 352.13C246.499 352.72 246.538 353.879 246.538 355.598H247.138C247.138 353.878 247.099 352.694 247.039 352.073L246.442 352.13ZM246.538 355.598C246.538 356.411 246.499 357.714 246.421 359.51L247.021 359.536C247.099 357.739 247.138 356.425 247.138 355.598H246.538ZM246.421 359.523C246.421 359.694 246.525 359.791 246.548 359.814L246.972 359.389C246.959 359.376 246.976 359.391 246.991 359.415C246.999 359.43 247.008 359.448 247.013 359.468C247.019 359.489 247.021 359.508 247.021 359.523H246.421ZM246.76 359.902H246.838V359.302H246.76V359.902ZM260.705 359.582V359.882H260.802L260.881 359.825L260.705 359.582ZM261.134 358.605L260.839 358.552L260.838 358.561L260.837 358.57L261.134 358.605ZM261.252 352.57L261.551 352.556L261.549 352.514L261.536 352.475L261.252 352.57ZM260.314 350.539L260.421 350.259L260.369 350.239H260.314V350.539ZM260.138 350.695H259.838V350.725L259.844 350.754L260.138 350.695ZM260.392 351.223L260.632 351.043L260.625 351.034L260.618 351.025L260.392 351.223ZM260.607 351.867L260.906 351.846L260.906 351.846L260.607 351.867ZM260.588 359.523L260.288 359.507L260.288 359.515V359.523H260.588ZM260.881 359.825C261.197 359.595 261.37 359.159 261.432 358.641L260.837 358.57C260.781 359.029 260.642 359.257 260.528 359.339L260.881 359.825ZM261.43 358.658C261.569 357.882 261.63 357.2 261.63 356.613H261.03C261.03 357.159 260.973 357.806 260.839 358.552L261.43 358.658ZM261.63 356.613C261.63 355.107 261.61 353.754 261.551 352.556L260.952 352.585C261.01 353.769 261.03 355.111 261.03 356.613H261.63ZM261.536 352.475C261.536 352.475 261.535 352.47 261.533 352.458C261.532 352.443 261.532 352.426 261.532 352.395H260.932C260.932 352.446 260.93 352.553 260.967 352.665L261.536 352.475ZM261.532 352.395C261.532 351.967 261.491 351.565 261.383 351.197L260.808 351.366C260.894 351.662 260.932 352.002 260.932 352.395H261.532ZM261.383 351.197C261.251 350.748 260.889 350.437 260.421 350.259L260.207 350.819C260.56 350.954 260.744 351.151 260.808 351.366L261.383 351.197ZM260.314 350.239C260.209 350.239 260.082 350.265 259.98 350.359C259.873 350.457 259.838 350.586 259.838 350.695H260.438C260.438 350.707 260.433 350.758 260.385 350.802C260.341 350.842 260.302 350.839 260.314 350.839V350.239ZM259.844 350.754C259.892 350.994 259.991 351.219 260.166 351.42L260.618 351.025C260.52 350.913 260.463 350.787 260.432 350.636L259.844 350.754ZM260.152 351.403C260.228 351.504 260.291 351.66 260.308 351.889L260.906 351.846C260.884 351.527 260.791 351.254 260.632 351.043L260.152 351.403ZM260.308 351.888C260.366 352.719 260.405 353.883 260.405 355.383H261.005C261.005 353.874 260.966 352.695 260.906 351.846L260.308 351.888ZM260.405 355.383C260.405 356.764 260.366 358.125 260.288 359.507L260.887 359.54C260.965 358.148 261.005 356.775 261.005 355.383H260.405ZM260.288 359.523C260.288 359.591 260.306 359.713 260.417 359.802C260.511 359.877 260.616 359.882 260.666 359.882V359.282C260.666 359.282 260.679 359.282 260.699 359.287C260.72 359.292 260.756 359.304 260.792 359.333C260.879 359.403 260.888 359.495 260.888 359.523H260.288ZM260.666 359.882H260.705V359.282H260.666V359.882ZM270.118 359.582L270.045 359.873L270.106 359.888L270.167 359.878L270.118 359.582ZM270.528 357.141L270.828 357.148L270.828 357.147L270.528 357.141ZM270.684 355.52L270.945 355.668L270.946 355.667L270.684 355.52ZM271.485 354.23L271.729 354.405L271.731 354.403L271.485 354.23ZM272.559 350.871L272.291 351.005L272.302 351.027L272.317 351.048L272.559 350.871ZM272.266 351.047L272.563 351.092L272.566 351.07V351.047H272.266ZM270.919 354.133L270.683 353.947L270.675 353.958L270.919 354.133ZM270.372 354.992L270.116 355.149L270.374 355.571L270.629 355.147L270.372 354.992ZM268.927 352.629L268.664 352.775L268.671 352.785L268.927 352.629ZM267.559 352.004L267.73 351.757L267.719 351.75L267.708 351.743L267.559 352.004ZM268.653 353.43L268.912 353.277L268.909 353.272L268.653 353.43ZM270.02 355.695L270.314 355.754L270.337 355.64L270.277 355.54L270.02 355.695ZM269.923 357.434L270.222 357.457L270.223 357.445V357.434H269.923ZM270.167 359.878C270.392 359.84 270.501 359.641 270.551 359.526C270.611 359.386 270.657 359.202 270.692 358.99C270.764 358.56 270.808 357.943 270.828 357.148L270.228 357.133C270.209 357.92 270.165 358.504 270.1 358.89C270.068 359.086 270.032 359.213 270 359.287C269.957 359.386 269.961 359.304 270.069 359.286L270.167 359.878ZM270.828 357.147C270.838 356.682 270.857 356.32 270.883 356.059C270.896 355.929 270.91 355.829 270.924 355.757C270.94 355.675 270.951 355.657 270.945 355.668L270.424 355.371C270.378 355.45 270.353 355.552 270.335 355.641C270.316 355.739 270.3 355.86 270.286 356C270.258 356.282 270.238 356.662 270.228 357.134L270.828 357.147ZM270.946 355.667C271.198 355.22 271.446 354.802 271.729 354.405L271.241 354.056C270.939 354.48 270.678 354.92 270.423 355.372L270.946 355.667ZM271.731 354.403C272.175 353.771 272.512 353.219 272.739 352.753C272.962 352.294 273.094 351.888 273.094 351.555H272.494C272.494 351.749 272.411 352.055 272.199 352.49C271.991 352.918 271.674 353.44 271.24 354.058L271.731 354.403ZM273.094 351.555C273.094 351.229 272.99 350.954 272.802 350.695L272.317 351.048C272.441 351.218 272.494 351.372 272.494 351.555H273.094ZM272.828 350.737C272.791 350.664 272.738 350.612 272.687 350.578C272.644 350.549 272.571 350.512 272.481 350.512V351.113C272.441 351.113 272.411 351.103 272.396 351.098C272.379 351.092 272.365 351.084 272.354 351.077C272.332 351.062 272.308 351.039 272.291 351.005L272.828 350.737ZM272.481 350.512C272.353 350.512 272.185 350.559 272.075 350.724L272.575 351.057C272.563 351.075 272.543 351.092 272.52 351.103C272.499 351.112 272.484 351.113 272.481 351.113V350.512ZM272.075 350.724C272.017 350.811 271.966 350.928 271.966 351.047H272.566C272.566 351.061 272.565 351.071 272.564 351.075C272.563 351.079 272.563 351.08 272.563 351.079C272.564 351.076 272.568 351.068 272.575 351.057L272.075 350.724ZM271.97 351.002C271.802 352.101 271.375 353.069 270.683 353.947L271.154 354.318C271.908 353.361 272.379 352.297 272.563 351.092L271.97 351.002ZM270.675 353.958C270.471 354.243 270.289 354.547 270.115 354.838L270.629 355.147C270.806 354.852 270.976 354.569 271.163 354.307L270.675 353.958ZM270.628 354.836L269.182 352.472L268.671 352.785L270.116 355.149L270.628 354.836ZM269.189 352.483C268.945 352.046 268.686 351.697 268.409 351.454C268.131 351.209 267.819 351.059 267.481 351.059V351.659C267.632 351.659 267.808 351.724 268.013 351.905C268.22 352.086 268.44 352.372 268.665 352.775L269.189 352.483ZM267.481 351.059C267.345 351.059 267.195 351.083 267.071 351.164C266.929 351.257 266.849 351.405 266.849 351.574H267.449C267.449 351.584 267.447 351.603 267.435 351.626C267.423 351.648 267.408 351.661 267.399 351.667C267.391 351.672 267.391 351.67 267.406 351.666C267.421 351.663 267.445 351.659 267.481 351.659V351.059ZM266.849 351.574C266.849 351.75 266.939 351.889 267.036 351.99C267.133 352.091 267.264 352.18 267.411 352.264L267.708 351.743C267.582 351.671 267.507 351.614 267.468 351.573C267.428 351.533 267.449 351.535 267.449 351.574H266.849ZM267.389 352.251C267.475 352.311 267.608 352.445 267.787 352.679C267.962 352.908 268.166 353.211 268.398 353.587L268.909 353.272C268.671 352.887 268.455 352.565 268.264 352.315C268.077 352.07 267.897 351.873 267.73 351.757L267.389 352.251ZM268.395 353.582C268.845 354.346 269.316 355.111 269.764 355.851L270.277 355.54C269.826 354.795 269.36 354.037 268.912 353.277L268.395 353.582ZM269.726 355.636C269.661 355.961 269.623 356.574 269.623 357.434H270.223C270.223 356.575 270.262 356.015 270.314 355.754L269.726 355.636ZM269.624 357.411C269.604 357.661 269.584 357.908 269.584 358.176H270.184C270.184 357.936 270.202 357.714 270.222 357.457L269.624 357.411ZM269.584 358.176C269.584 358.63 269.603 358.991 269.646 359.25C269.668 359.378 269.697 359.499 269.743 359.598C269.783 359.685 269.87 359.829 270.045 359.873L270.191 359.291C270.287 359.315 270.306 359.386 270.288 359.346C270.275 359.318 270.256 359.258 270.238 359.152C270.203 358.942 270.184 358.62 270.184 358.176H269.584ZM282.91 359.504L282.61 359.49V359.504H282.91ZM282.93 359.074L283.23 359.088V359.074H282.93ZM282.051 355.832L281.77 355.938L281.773 355.946L282.051 355.832ZM281.543 354.484L281.259 354.583L281.262 354.59L281.543 354.484ZM280.371 351.711L280.072 351.686L280.065 351.771L280.104 351.847L280.371 351.711ZM280.391 351.477L280.69 351.501L280.691 351.489V351.477H280.391ZM279.883 350.617L280.046 350.365L279.998 350.334L279.942 350.323L279.883 350.617ZM279.785 350.598L279.844 350.303L279.815 350.298H279.785V350.598ZM279.609 350.793H279.309V350.823L279.315 350.852L279.609 350.793ZM278.848 354.758L279.123 354.876L279.124 354.874L278.848 354.758ZM278.555 355.441L278.279 355.323L278.274 355.336L278.555 355.441ZM276.68 359.289L276.423 359.134L276.38 359.206V359.289H276.68ZM276.738 359.328V359.628H276.825L276.899 359.581L276.738 359.328ZM278.555 357.004L278.522 356.706L278.342 356.726L278.276 356.893L278.555 357.004ZM281.602 356.379L281.88 356.268L281.758 355.959L281.463 356.113L281.602 356.379ZM282.754 359.543H283.054V359.493L283.037 359.445L282.754 359.543ZM278.789 356.398L278.508 356.292L278.33 356.765L278.83 356.696L278.789 356.398ZM279.336 354.953L279.06 354.836L279.055 354.847L279.336 354.953ZM280.156 352.551L280.437 352.446L280.106 351.559L279.866 352.475L280.156 352.551ZM281.426 355.949L281.475 356.245L281.834 356.185L281.707 355.844L281.426 355.949ZM280.547 356.145L280.62 356.436L280.627 356.434L280.547 356.145ZM279.492 356.301L279.467 356.002L279.459 356.003L279.451 356.004L279.492 356.301ZM282.793 359.882C282.843 359.882 282.945 359.879 283.04 359.819C283.167 359.74 283.21 359.61 283.21 359.504H282.61C282.61 359.486 282.613 359.451 282.633 359.41C282.654 359.366 282.687 359.332 282.722 359.311C282.753 359.291 282.78 359.285 282.789 359.283C282.799 359.281 282.801 359.282 282.793 359.282V359.882ZM283.21 359.518L283.229 359.088L282.63 359.061L282.61 359.49L283.21 359.518ZM283.23 359.074C283.23 358.289 282.917 357.149 282.328 355.718L281.773 355.946C282.357 357.366 282.63 358.414 282.63 359.074H283.23ZM282.332 355.726L281.824 354.379L281.262 354.59L281.77 355.938L282.332 355.726ZM281.826 354.386C281.49 353.418 281.095 352.467 280.638 351.574L280.104 351.847C280.546 352.712 280.931 353.637 281.26 354.583L281.826 354.386ZM280.67 351.736L280.69 351.501L280.092 351.452L280.072 351.686L280.67 351.736ZM280.691 351.477C280.691 350.984 280.445 350.624 280.046 350.365L279.72 350.869C279.984 351.04 280.091 351.227 280.091 351.477H280.691ZM279.942 350.323L279.844 350.303L279.726 350.892L279.824 350.911L279.942 350.323ZM279.785 350.298C279.68 350.298 279.54 350.324 279.433 350.441C279.33 350.552 279.309 350.689 279.309 350.793H279.909C279.909 350.76 279.918 350.8 279.874 350.848C279.825 350.9 279.773 350.898 279.785 350.898V350.298ZM279.315 350.852C279.372 351.136 279.407 351.387 279.407 351.633H280.007C280.007 351.331 279.964 351.036 279.904 350.734L279.315 350.852ZM279.407 351.633C279.407 352.311 279.135 353.299 278.571 354.642L279.124 354.874C279.693 353.521 280.007 352.439 280.007 351.633H279.407ZM278.572 354.64L278.279 355.323L278.83 355.56L279.123 354.876L278.572 354.64ZM278.274 355.336C277.773 356.665 277.156 357.918 276.423 359.134L276.937 359.444C277.688 358.199 278.321 356.913 278.835 355.547L278.274 355.336ZM276.38 359.289C276.38 359.549 276.619 359.628 276.738 359.628V359.028C276.767 359.028 276.82 359.035 276.874 359.076C276.93 359.118 276.98 359.193 276.98 359.289H276.38ZM276.899 359.581C277.763 359.033 278.405 358.197 278.834 357.114L278.276 356.893C277.884 357.882 277.315 358.607 276.578 359.075L276.899 359.581ZM278.588 357.302C279.384 357.214 280.044 357.115 280.564 357.007C281.077 356.901 281.477 356.782 281.74 356.645L281.463 356.113C281.277 356.21 280.944 356.316 280.442 356.42C279.947 356.522 279.307 356.618 278.522 356.706L278.588 357.302ZM281.323 356.489C281.73 357.518 282.099 358.567 282.47 359.641L283.037 359.445C282.666 358.37 282.293 357.31 281.88 356.268L281.323 356.489ZM282.454 359.543C282.454 359.65 282.505 359.733 282.554 359.782C282.603 359.831 282.686 359.882 282.793 359.882V359.282C282.881 359.282 282.943 359.323 282.978 359.358C283.013 359.392 283.054 359.455 283.054 359.543H282.454ZM279.07 356.505L279.617 355.059L279.055 354.847L278.508 356.292L279.07 356.505ZM279.612 355.07C279.95 354.276 280.228 353.461 280.446 352.627L279.866 352.475C279.655 353.281 279.386 354.068 279.06 354.836L279.612 355.07ZM279.875 352.656L281.145 356.054L281.707 355.844L280.437 352.446L279.875 352.656ZM281.376 355.653C281.134 355.694 280.83 355.755 280.467 355.855L280.627 356.434C280.967 356.339 281.249 356.283 281.475 356.245L281.376 355.653ZM280.474 355.853C280.26 355.907 279.925 355.964 279.467 356.002L279.517 356.6C279.997 356.56 280.365 356.499 280.62 356.436L280.474 355.853ZM279.451 356.004L278.748 356.101L278.83 356.696L279.533 356.598L279.451 356.004Z" fill="#7F6055"/>
<line x1="311.5" y1="139" x2="311.5" y2="345" stroke="#AE8C81"/>
<line x1="357.5" y1="139" x2="357.5" y2="345" stroke="#AE8C81"/>
<line x1="380.5" y1="139" x2="380.5" y2="345" stroke="#AE8C81"/>
<line x1="35.5" y1="139" x2="35.5" y2="345" stroke="#AE8C81"/>
<line x1="58.5" y1="139" x2="58.5" y2="345" stroke="#AE8C81"/>
<line x1="81.5" y1="139" x2="81.5" y2="345" stroke="#AE8C81"/>
<line x1="104.5" y1="139" x2="104.5" y2="345" stroke="#AE8C81"/>
<line x1="127.5" y1="139" x2="127.5" y2="345" stroke="#AE8C81"/>
<line x1="150.5" y1="139" x2="150.5" y2="345" stroke="#AE8C81"/>
<line x1="173.5" y1="139" x2="173.5" y2="345" stroke="#AE8C81"/>
<line x1="196.5" y1="139" x2="196.5" y2="345" stroke="#AE8C81"/>
<line x1="219.5" y1="139" x2="219.5" y2="345" stroke="#AE8C81"/>
<line x1="242.5" y1="139" x2="242.5" y2="345" stroke="#AE8C81"/>
<line x1="265.5" y1="139" x2="265.5" y2="345" stroke="#AE8C81"/>
<line x1="288.5" y1="139" x2="288.5" y2="345" stroke="#AE8C81"/>
<line x1="403.5" y1="139" x2="403.5" y2="345" stroke="#AE8C81"/>
<line x1="426.5" y1="139" x2="426.5" y2="345" stroke="#AE8C81"/>
<line x1="449.5" y1="139" x2="449.5" y2="345" stroke="#AE8C81"/>
<line x1="472.5" y1="139" x2="472.5" y2="345" stroke="#AE8C81"/>
<line x1="334.5" y1="139" x2="334.5" y2="345" stroke="#AE8C81"/>
<line x1="311.5" y1="365" x2="311.5" y2="388" stroke="#AE8C81"/>
<line x1="357.5" y1="365" x2="357.5" y2="596" stroke="#AE8C81"/>
<line x1="380.5" y1="365" x2="380.5" y2="596" stroke="#AE8C81"/>
<line x1="35.5" y1="365" x2="35.5" y2="596" stroke="#AE8C81"/>
<line x1="58.5" y1="365" x2="58.5" y2="596" stroke="#AE8C81"/>
<line x1="81.5" y1="365" x2="81.5" y2="596" stroke="#AE8C81"/>
<line x1="104.5" y1="365" x2="104.5" y2="596" stroke="#AE8C81"/>
<line x1="127.5" y1="365" x2="127.5" y2="596" stroke="#AE8C81"/>
<line x1="150.5" y1="365" x2="150.5" y2="596" stroke="#AE8C81"/>
<line x1="173.5" y1="365" x2="173.5" y2="596" stroke="#AE8C81"/>
<line x1="196.5" y1="365" x2="196.5" y2="388" stroke="#AE8C81"/>
<line x1="219.5" y1="365" x2="219.5" y2="388" stroke="#AE8C81"/>
<line x1="242.5" y1="365" x2="242.5" y2="388" stroke="#AE8C81"/>
<line x1="265.5" y1="365" x2="265.5" y2="388" stroke="#AE8C81"/>
<line x1="288.5" y1="365" x2="288.5" y2="388" stroke="#AE8C81"/>
<line x1="403.5" y1="365" x2="403.5" y2="596" stroke="#AE8C81"/>
<line x1="426.5" y1="365" x2="426.5" y2="596" stroke="#AE8C81"/>
<line x1="449.5" y1="365" x2="449.5" y2="596" stroke="#AE8C81"/>
<line x1="472.5" y1="365" x2="472.5" y2="596" stroke="#AE8C81"/>
<line x1="334.5" y1="365" x2="334.5" y2="596" stroke="#AE8C81"/>
<rect x="80" y="168" width="150" height="22" fill="#202E33"/>
<rect x="90" y="190" width="128" height="120" fill="#311F18"/>
<rect x="99" y="310" width="111" height="15" fill="#311F18"/>
<rect x="112" y="190" width="86" height="113" fill="#BBA798"/>
<line x1="156" y1="190" x2="156" y2="303" stroke="#311F18" stroke-width="4"/>
<line x1="198" y1="247" x2="112" y2="247" stroke="#311F18" stroke-width="4"/>
<line x1="198" y1="218" x2="112" y2="218" stroke="#311F18" stroke-width="4"/>
<line x1="198" y1="276" x2="112" y2="276" stroke="#311F18" stroke-width="4"/>
<line x1="177.5" y1="190" x2="177.5" y2="303" stroke="#311F18"/>
<line x1="167.5" y1="190" x2="167.5" y2="303" stroke="#311F18"/>
<line x1="187.5" y1="190" x2="187.5" y2="303" stroke="#311F18"/>
<line x1="133.5" y1="190" x2="133.5" y2="303" stroke="#311F18"/>
<line x1="123.5" y1="190" x2="123.5" y2="303" stroke="#311F18"/>
<line x1="143.5" y1="190" x2="143.5" y2="303" stroke="#311F18"/>
<rect x="273" y="168" width="150" height="22" fill="#202E33"/>
<rect x="283" y="190" width="128" height="120" fill="#311F18"/>
<rect x="292" y="310" width="111" height="15" fill="#311F18"/>
<rect x="305" y="190" width="86" height="113" fill="#BBA798"/>
<line x1="349" y1="190" x2="349" y2="303" stroke="#311F18" stroke-width="4"/>
<line x1="391" y1="247" x2="305" y2="247" stroke="#311F18" stroke-width="4"/>
<line x1="391" y1="218" x2="305" y2="218" stroke="#311F18" stroke-width="4"/>
<line x1="391" y1="276" x2="305" y2="276" stroke="#311F18" stroke-width="4"/>
<line x1="370.5" y1="190" x2="370.5" y2="303" stroke="#311F18"/>
<line x1="360.5" y1="190" x2="360.5" y2="303" stroke="#311F18"/>
<line x1="380.5" y1="190" x2="380.5" y2="303" stroke="#311F18"/>
<line x1="326.5" y1="190" x2="326.5" y2="303" stroke="#311F18"/>
<line x1="316.5" y1="190" x2="316.5" y2="303" stroke="#311F18"/>
<line x1="336.5" y1="190" x2="336.5" y2="303" stroke="#311F18"/>
<rect x="26" y="596" width="454" height="36" fill="#222125"/>
<rect x="159" y="591" width="188" height="21" fill="#322D2B"/>
<rect x="159" y="604" width="188" height="8" fill="black" fill-opacity="0.15"/>
<rect x="175" y="583" width="156" height="8" fill="black" fill-opacity="0.15"/>
<rect x="155" y="612" width="196" height="20" fill="#322D2B"/>
<path d="M99 71H145L111.5 123H58L99 71Z" fill="#1D252B"/>
<path d="M401 71H355L388.5 123H442L401 71Z" fill="#1D252B"/>
<path d="M184 71H230L222.5 123H166.5L184 71Z" fill="#1D252B"/>
<path d="M316 71H270L277.5 123H333.5L316 71Z" fill="#1D252B"/>
<path d="M80 139H480V345H253L80 139Z" fill="black" fill-opacity="0.15"/>
<path d="M70 71H447L495 123H227.43L70 71Z" fill="black" fill-opacity="0.15"/>
<rect x="26" y="365" width="454" height="11" fill="black" fill-opacity="0.15"/>
<rect x="26" y="365" width="454" height="27" fill="black" fill-opacity="0.15"/>
<path d="M387 463H419L428 469H378L387 463Z" fill="#216926"/>
<rect x="378" y="469" width="50" height="3" fill="#1C5920"/>
<g filter="url(#filter0_i_346_758)">
<path d="M382 472H424L419.532 515H386.468L382 472Z" fill="#184F1C"/>
</g>
<path d="M387 459C387 458.448 387.448 458 388 458H418C418.552 458 419 458.448 419 459V463H387V459Z" fill="#1C5920"/>
<path d="M411 506.93C405.5 510.93 402 510.93 396.691 506.7C391.25 502.365 388.627 504.443 386 504.93L384 485.93C387.632 485.61 392.13 483.201 396.691 487.7C402.5 493.43 405.5 492.93 411.603 487.7C416.417 483.575 420.279 486 422 486L420 505C414.4 505 413.478 505.128 411 506.93Z" fill="#DBDBDB"/>
<circle cx="403.5" cy="482.5" r="5" stroke="#DBDBDB"/>
<path d="M399.88 481.105L405.161 479L404.878 480.849L399.597 482.954L399.88 481.105Z" fill="#DBDBDB"/>
<path d="M400.88 483.105L406.161 481L405.878 482.849L400.597 484.954L400.88 483.105Z" fill="#DBDBDB"/>
<path d="M402.459 484.874L407.161 483L406.909 484.646L402.207 486.52L402.459 484.874Z" fill="#DBDBDB"/>
<path d="M394.809 497.529C394.526 497.529 394.282 497.48 394.082 497.373C393.881 497.266 393.784 497.139 393.784 496.987C393.784 496.836 393.881 496.709 394.082 496.602C394.282 496.499 394.526 496.445 394.809 496.445C395.092 496.445 395.332 496.499 395.532 496.602C395.732 496.709 395.83 496.836 395.83 496.987C395.83 497.139 395.732 497.266 395.532 497.373C395.332 497.48 395.092 497.529 394.809 497.529ZM394.809 498.154C395.366 498.154 395.844 498.037 396.24 497.808C396.635 497.573 396.831 497.29 396.831 496.963C396.831 496.631 396.635 496.353 396.24 496.118C395.844 495.884 395.366 495.767 394.809 495.767C394.248 495.767 393.769 495.884 393.374 496.118C392.978 496.353 392.783 496.631 392.783 496.963C392.783 497.29 392.978 497.573 393.374 497.808C393.769 498.037 394.248 498.154 394.809 498.154ZM395.249 500.732V499.341H397.036V498.599H392.573V499.341H394.35V500.732H395.249ZM399.692 497.534C399.409 497.534 399.165 497.48 398.964 497.373C398.764 497.271 398.667 497.139 398.667 496.992C398.667 496.841 398.764 496.714 398.964 496.606C399.165 496.499 399.409 496.445 399.692 496.445C399.975 496.445 400.214 496.499 400.415 496.606C400.615 496.714 400.712 496.841 400.712 496.992C400.712 497.139 400.615 497.271 400.415 497.373C400.214 497.48 399.975 497.534 399.692 497.534ZM399.692 498.159C400.249 498.159 400.727 498.042 401.123 497.808C401.518 497.573 401.713 497.295 401.713 496.963C401.713 496.636 401.518 496.353 401.123 496.118C400.727 495.889 400.249 495.771 399.692 495.771C399.13 495.771 398.652 495.889 398.256 496.118C397.861 496.353 397.666 496.636 397.666 496.963C397.666 497.295 397.861 497.573 398.256 497.808C398.652 498.042 399.13 498.159 399.692 498.159ZM401.044 500.732V499.346H401.918V498.579H397.456V499.346H398.334V500.732H399.116V499.346H400.263V500.732H401.044ZM404.184 498.682C404.643 498.403 404.985 498.096 405.209 497.759C405.478 498.066 405.849 498.34 406.318 498.569L406.669 497.759C406.245 497.563 405.898 497.275 405.625 496.89C405.703 496.597 405.742 496.304 405.742 496.011C405.742 495.962 405.742 495.928 405.737 495.918L404.804 496.011V496.035C404.804 496.816 404.443 497.427 403.715 497.871L404.184 498.682ZM406.137 500.156C405.908 500.156 405.708 500.122 405.546 500.049C405.385 499.976 405.302 499.888 405.302 499.785C405.302 499.683 405.385 499.595 405.546 499.526C405.708 499.453 405.908 499.414 406.137 499.414C406.367 499.414 406.562 499.453 406.723 499.526C406.884 499.595 406.967 499.683 406.967 499.785C406.967 499.888 406.884 499.976 406.723 500.049C406.562 500.122 406.367 500.156 406.137 500.156ZM406.171 500.815C406.713 500.815 407.177 500.713 407.563 500.513C407.949 500.312 408.144 500.068 408.144 499.785C408.144 499.502 407.949 499.263 407.563 499.062C407.177 498.857 406.713 498.76 406.171 498.76C405.625 498.76 405.161 498.857 404.775 499.062C404.389 499.263 404.199 499.502 404.199 499.785C404.199 500.068 404.389 500.312 404.775 500.513C405.161 500.713 405.625 500.815 406.171 500.815ZM407.9 498.667V497.817H408.437V496.958H407.9V495.908H406.923V498.667H407.9ZM411.508 500.361L412.104 499.736C411.679 499.297 411.381 498.784 411.21 498.208C411.04 497.637 410.937 497.183 410.913 496.855H411.792V496.035H409.091V496.855H410.004C409.995 497.188 409.907 497.622 409.736 498.164C409.565 498.706 409.238 499.233 408.754 499.736L409.355 500.352C409.877 499.814 410.249 499.253 410.463 498.677C410.673 499.297 411.025 499.858 411.508 500.361ZM413.105 500.732V498.486H413.642V497.627H413.105V495.889H412.128V500.732H413.105Z" fill="#1C5920"/>
<rect x="86" y="580" width="8" height="64" fill="black" fill-opacity="0.15"/>
<path d="M74 555.5C74 546.387 81.3873 539 90.5 539V539C99.6127 539 107 546.387 107 555.5V580H74V555.5Z" fill="black" fill-opacity="0.15"/>
<rect x="79" y="584" width="8" height="64" fill="#282828"/>
<path d="M67 559.5C67 550.387 74.3873 543 83.5 543V543C92.6127 543 100 550.387 100 559.5V584H67V559.5Z" fill="#BE3B3B"/>
<path d="M69 559.5C69 551.492 75.4919 545 83.5 545V545C91.5081 545 98 551.492 98 559.5V580H69V559.5Z" fill="black" fill-opacity="0.1"/>
<rect x="73" y="554" width="21" height="4" fill="black" fill-opacity="0.15"/>
<rect x="66" y="581" width="35" height="3" fill="#BE3B3B"/>
<path d="M76.5182 567.018V566.188H76.8453C77.0309 566.188 77.1627 566.212 77.2408 566.261C77.3189 566.31 77.3629 566.363 77.3775 566.432C77.3922 566.495 77.402 566.559 77.402 566.607C77.402 566.866 77.2164 567.003 76.8453 567.013C76.7721 567.018 76.6598 567.018 76.5182 567.018ZM76.5182 569.264V567.838C77.6559 567.838 78.2223 567.428 78.2223 566.607C78.1539 565.782 77.6949 565.367 76.8453 565.367H75.6197V569.264H76.5182ZM81.09 568.658C80.4992 568.604 80.2063 568.146 80.2063 567.291C80.2648 566.378 80.5627 565.924 81.09 565.924C81.3537 565.924 81.5686 566.051 81.7297 566.3C81.8908 566.554 81.9738 566.881 81.9738 567.291C81.9396 568.204 81.6418 568.658 81.09 568.658ZM81.09 569.293C81.5148 569.293 81.9055 569.132 82.2619 568.81C82.6184 568.487 82.7941 567.984 82.7941 567.291C82.7941 566.71 82.633 566.231 82.3107 565.855C81.9934 565.479 81.5832 565.289 81.09 565.289C80.5969 565.289 80.1867 565.479 79.8693 565.855C79.5471 566.231 79.3859 566.71 79.3859 567.291C79.3859 567.984 79.5617 568.487 79.9182 568.81C80.2746 569.132 80.6652 569.293 81.09 569.293ZM85.1102 569.386C85.5496 569.386 85.8572 569.303 86.0281 569.142C86.3357 568.927 86.492 568.624 86.492 568.233C86.492 567.931 86.4139 567.701 86.2625 567.54C86.077 567.34 85.74 567.12 85.2566 566.886C84.9539 566.734 84.7928 566.627 84.7732 566.568C84.7635 566.549 84.7586 566.52 84.7586 566.49C84.7586 566.31 84.9148 566.217 85.2322 566.217C85.4275 566.217 85.6766 566.261 85.9793 566.344L86.243 565.567C85.9109 565.455 85.574 565.396 85.2371 565.396C84.9197 565.396 84.6414 565.47 84.3973 565.616C84.0945 565.816 83.9432 566.104 83.9432 566.485C83.9432 566.783 84.0311 567.013 84.2068 567.174C84.3973 567.35 84.6219 567.496 84.8807 567.613C85.2078 567.784 85.4178 567.901 85.5154 567.965C85.5984 568.019 85.6424 568.067 85.657 568.111C85.6668 568.141 85.6717 568.175 85.6717 568.219L85.6668 568.302C85.6619 568.409 85.5643 568.487 85.3836 568.536C85.3201 568.556 85.2371 568.561 85.1297 568.561C84.8758 568.561 84.573 568.507 84.2313 568.399L83.9822 569.181C84.4266 569.317 84.8025 569.386 85.1102 569.386ZM89.3402 569.264V566.148H90.3803V565.367H87.4018V566.148H88.4418V569.264H89.3402Z" fill="white"/>
<defs>
<filter id="filter0_i_346_758" x="382" y="472" width="42" height="43" filterUnits="userSpaceOnUse" color-interpolation-filters="sRGB">
<feFlood flood-opacity="0" result="BackgroundImageFix"/>
<feBlend mode="normal" in="SourceGraphic" in2="BackgroundImageFix" result="shape"/>
<feColorMatrix in="SourceAlpha" type="matrix" values="0 0 0 0 0 0 0 0 0 0 0 0 0 0 0 0 0 0 127 0" result="hardAlpha"/>
<feOffset dy="2"/>
<feComposite in2="hardAlpha" operator="arithmetic" k2="-1" k3="1"/>
<feColorMatrix type="matrix" values="0 0 0 0 0 0 0 0 0 0 0 0 0 0 0 0 0 0 0.23 0"/>
<feBlend mode="normal" in2="shape" result="effect1_innerShadow_346_758"/>
</filter>
</defs>
</svg>
